<?xml version="1.0" encoding="UTF-8"?>
<svg width="579px" height="109px" viewBox="0 0 579 109" version="1.1" xmlns="http://www.w3.org/2000/svg" xmlns:xlink="http://www.w3.org/1999/xlink">
    <title>Group 2</title>
    <g id="Page-1" stroke="none" stroke-width="1" fill="none" fill-rule="evenodd">
        <g id="Group-2" fill="#000000" fill-rule="nonzero">
            <path d="M384.791754,1.0004784 C507.73832,1.01608 579,1.412 579,2 C579,2.8 558.9,100.5 557.5,106.7 L557.5,106.7 L557,109 L354.9,109 C189.692898,108.09 174.824259,108.0081 158.416785,108.000729 L153.356552,108 C153.556552,107.1 158.7,82 164.6,53.2 L164.6,53.2 L175.4,1 Z M22.5,1.2 C22.9,0.3 170.525662,1.2 170.525662,1.2 C170.525662,1.2 165.4,26.2 159.4,55.2 L159.4,55.2 L148.5,108 L0.4,108 C0.6,107.4 5.7,82.3 11.5,54 C17.4,25.7 22.3,1.9 22.5,1.2 Z M85.5,13 C83.3,13 82.3,14.5 77,25 C73.7,31.6 70.7,37 70.3,37 C69.9,37 67.2,34.7 64.4,31.9 L64.4,31.9 L59.2,26.8 L56.7,31.1 C43.5,54.3 35.9,69.4 36.2,72.2 C36.5,75.1 37.2,75.6 58.4,85.1 C87.2,98.1 84.4,98.1 113,85.1 C134.1,75.5 134.5,75.3 134.8,72.1 C135.1,69.6 132.9,64.7 124.6,49.2 C118.8,38.4 113.6,28.8 113,28 C112.2,26.8 111,27.5 106.3,32.2 L106.3,32.2 L100.5,38 L94.2,25.5 C88.8,14.5 87.7,13 85.5,13 Z M85.9883445,20.4972601 L86,20.5 C86.3,20.7 91.7,31.2 98,43.9 L98,43.9 L109.5,67 L85.5,91 L61.8,67.3 L73.6,43.7 C80.1,30.8 85.7,20.3 86,20.5 Z M60.3,34.8 L64.2,38.7 L68.1,42.7 L61.8,55.3 L55.5,68 L64.5,77.1 C73.1,85.7 73.3,86.1 69.5,84.5 C57,79.4 41,71.5 41.2,70.6 C41.4,70 45.7,61.7 50.9,52.1 L50.9,52.1 L60.3,34.8 Z M111,35 C111.9,35.1 130.2,70 129.8,71.1 C129.5,72.1 101,85.3 100.4,84.7 C100.2,84.5 103.4,81.1 107.5,77 C111.6,72.9 115,69 115,68.3 C115,67.5 112.3,61.5 108.9,54.9 L108.9,54.9 L102.9,42.7 L106.6,38.9 C108.7,36.7 110.7,35 111,35 Z M249.89209,31.8417969 C245.95459,31.8417969 242.478516,32.6364746 239.463867,34.2258301 C236.449219,35.8151855 233.921631,37.9172363 231.881104,40.5319824 C229.840576,43.1467285 228.297363,46.0332031 227.251465,49.1914063 C226.205566,52.3496094 225.682617,55.5078125 225.682617,58.6660156 C225.682617,62.9931641 226.579834,66.5769043 228.374268,69.4172363 C230.168701,72.2575684 232.578369,74.375 235.603271,75.7695313 C238.628174,77.1640625 241.986328,77.8613281 245.677734,77.8613281 C250.517578,77.8613281 254.752441,76.6564941 258.382324,74.2468262 C261.887039,71.9202502 264.61748,68.4418228 266.573647,63.811544 L266.780273,63.3110352 L254.598633,60.6962891 C253.655273,62.7675781 252.481201,64.3569336 251.076416,65.4643555 C249.671631,66.5717773 247.995117,67.1254883 246.046875,67.1254883 C244.529297,67.1254883 243.201416,66.7871094 242.063232,66.1103516 C240.925049,65.4335938 240.043213,64.4440918 239.417725,63.1418457 C238.792236,61.8395996 238.479492,60.2451172 238.479492,58.3583984 C238.479492,56.9638672 238.674316,55.3745117 239.063965,53.590332 C239.453613,51.8061523 240.068848,50.0783691 240.909668,48.4069824 C241.750488,46.7355957 242.863037,45.3513184 244.247314,44.2541504 C245.631592,43.1569824 247.318359,42.6083984 249.307617,42.6083984 C251.419922,42.6083984 253.224609,43.2800293 254.72168,44.623291 C256.150701,45.9054954 256.850975,47.6408313 256.822502,49.8292988 L256.813477,50.1450195 L269.302734,47.2841797 C269.097656,44.3105469 268.128662,41.6650391 266.395752,39.3476563 C264.662842,37.0302734 262.371094,35.1999512 259.520508,33.8566895 C256.669922,32.5134277 253.460449,31.8417969 249.89209,31.8417969 Z M353.189941,63.5878906 C351.016113,63.5878906 349.283203,64.2287598 347.991211,65.510498 C346.699219,66.7922363 346.053223,68.5302734 346.053223,70.7246094 C346.053223,72.8984375 346.699219,74.6313477 347.991211,75.9233398 C349.283203,77.215332 351.016113,77.8613281 353.189941,77.8613281 C355.384277,77.8613281 357.122314,77.215332 358.404053,75.9233398 C359.685791,74.6313477 360.32666,72.8984375 360.32666,70.7246094 C360.32666,68.5302734 359.685791,66.7922363 358.404053,65.510498 C357.122314,64.2287598 355.384277,63.5878906 353.189941,63.5878906 Z M387.058594,31.8417969 C383.633789,31.8417969 380.557617,32.5236816 377.830078,33.8874512 C375.102539,35.2512207 372.954346,37.0866699 371.385498,39.3937988 C369.81665,41.7009277 369.032227,44.2797852 369.032227,47.1303711 C369.032227,48.9350586 369.344971,50.4987793 369.970459,51.8215332 C370.595947,53.1442871 371.447021,54.2722168 372.523682,55.2053223 C373.600342,56.1384277 374.820557,56.9125977 376.184326,57.527832 C377.353271,58.0551758 378.563651,58.4996512 379.815465,58.8612584 L380.444824,59.0351563 L383.613281,59.8657227 C385.479492,60.3579102 386.86377,60.927002 387.766113,61.572998 C388.668457,62.2189941 389.119629,63.0854492 389.119629,64.1723633 C389.119629,64.9926758 388.878662,65.6591797 388.396729,66.171875 C387.914795,66.6845703 387.263672,67.0588379 386.443359,67.2946777 C385.623047,67.5305176 384.679688,67.6484375 383.613281,67.6484375 C382.075195,67.6484375 380.690918,67.4125977 379.460449,66.940918 C378.22998,66.4692383 377.291748,65.7924805 376.645752,64.9106445 C376.045898,64.0917969 375.804121,63.1226458 375.920419,62.0031913 L375.953613,61.7421875 L363.495117,64.2646484 C363.65918,66.5205078 364.325684,68.4943848 365.494629,70.1862793 C366.663574,71.8781738 368.191406,73.2932129 370.078125,74.4313965 C371.964844,75.5695801 374.066895,76.4257813 376.384277,77 C378.70166,77.5742188 381.070312,77.8613281 383.490234,77.8613281 C386.217773,77.8613281 388.724854,77.5126953 391.011475,76.8154297 C393.298096,76.1181641 395.2771,75.1337891 396.948486,73.8623047 C398.619873,72.5908203 399.911865,71.0681152 400.824463,69.2941895 C401.737061,67.5202637 402.193359,65.5566406 402.193359,63.4033203 C402.193359,60.9628906 401.660156,58.8864746 400.59375,57.1740723 C399.527344,55.4616699 398.168701,54.0671387 396.517822,52.9904785 C395.017023,52.0116966 393.486564,51.2829065 391.926445,50.8041084 L391.45752,50.6679688 L388.135254,49.7451172 C386.39209,49.2529297 384.930908,48.7658691 383.751709,48.2839355 C382.57251,47.802002 381.98291,46.9868164 381.98291,45.8383789 C381.98291,45.387207 382.111084,44.8693848 382.367432,44.2849121 C382.623779,43.7004395 383.121094,43.1826172 383.859375,42.7314453 C384.597656,42.2802734 385.664062,42.0546875 387.058594,42.0546875 C388.371094,42.0546875 389.499023,42.2700195 390.442383,42.7006836 C391.385742,43.1313477 392.11377,43.7209473 392.626465,44.4694824 C393.087891,45.1431641 393.341675,45.9040552 393.387817,46.7521558 L393.395508,47.0380859 L405.454102,44.6694336 C405.331055,42.7006836 404.726074,40.9318848 403.63916,39.3630371 C402.552246,37.7941895 401.137207,36.4458008 399.394043,35.3178711 C397.650879,34.1899414 395.712891,33.3286133 393.580078,32.7338867 C391.447266,32.1391602 389.273438,31.8417969 387.058594,31.8417969 Z M478.051758,31.8417969 C473.929688,31.8417969 470.325439,32.6364746 467.239014,34.2258301 C464.152588,35.8151855 461.589111,37.9172363 459.548584,40.5319824 C457.508057,43.1467285 455.975098,46.0229492 454.949707,49.1606445 C453.924316,52.2983398 453.411621,55.4155273 453.411621,58.512207 C453.411621,61.8549805 453.955078,64.746582 455.041992,67.1870117 C456.128906,69.6274414 457.615723,71.637207 459.502441,73.2163086 C461.38916,74.7954102 463.54248,75.9643555 465.962402,76.7231445 C468.382324,77.4819336 470.925293,77.8613281 473.591309,77.8613281 C477.733887,77.8613281 481.343262,77.0666504 484.419434,75.4772949 C487.495605,73.8879395 490.053955,71.7858887 492.094482,69.1711426 C494.13501,66.5563965 495.662842,63.6801758 496.677979,60.5424805 C497.693115,57.4047852 498.200684,54.2978516 498.200684,51.2216797 C498.200684,46.7919922 497.272705,43.1467285 495.416748,40.2858887 C493.560791,37.4250488 491.10498,35.3024902 488.049316,33.9182129 C484.993652,32.5339355 481.661133,31.8417969 478.051758,31.8417969 Z M226.974609,32.703125 L195.413086,32.703125 L186.123047,77 L218.084473,77 L220.330078,66.2333984 L200.458008,66.2333984 L201.996094,59.0043945 L218.053711,59.0043945 L220.17627,48.8530273 L204.118652,48.8530273 L205.256836,43.4697266 L224.729004,43.4697266 L226.974609,32.703125 Z M294.588867,32.703125 L277.423828,32.703125 L268.133789,77 L293.419922,77 C296.393555,77 299.018555,76.4206543 301.294922,75.2619629 C303.571289,74.1032715 305.360596,72.4985352 306.662842,70.4477539 C307.965088,68.3969727 308.616211,66.0488281 308.616211,63.4033203 C308.616211,60.7578125 307.949707,58.6660156 306.616699,57.1279297 C305.362104,55.6803194 303.63519,54.62328 301.435957,53.9568116 L301.289,53.914 L301.359267,53.9056852 C302.941705,53.6847711 304.447058,53.2032319 305.875324,52.4610675 L306.262939,52.2521973 C307.934326,51.3190918 309.292969,50.0168457 310.338867,48.345459 C311.384766,46.6740723 311.907715,44.6386719 311.907715,42.2392578 C311.907715,40.2910156 311.425781,38.604248 310.461914,37.1789551 C309.498047,35.7536621 307.770264,34.6513672 305.278564,33.8720703 C302.886533,33.1239453 299.506977,32.7349203 295.139896,32.7049953 L294.588867,32.703125 Z M351.928711,32.703125 L320.336426,32.703125 L311.046387,77 L323.166504,77 L326.611816,60.5424805 L343.223145,60.5424805 L345.499512,49.7758789 L328.888184,49.7758789 L330.210938,43.4697266 L349.683105,43.4697266 L351.928711,32.703125 Z M425.664551,32.703125 L413.544434,32.703125 L404.254395,77 L416.374512,77 L419.789062,60.6962891 L435.292969,60.6962891 L431.878418,77 L443.998535,77 L453.288574,32.703125 L441.168457,32.703125 L437.569336,49.9296875 L422.06543,49.9296875 L425.664551,32.703125 Z M524.594238,32.703125 L507.61377,32.703125 L498.32373,77 L510.413086,77 L513.919922,60.4194336 L522.994629,60.4194336 C526.070801,60.4194336 528.880371,60.1118164 531.42334,59.496582 C533.966309,58.8813477 536.155518,57.9379883 537.990967,56.6665039 C539.826416,55.3950195 541.241455,53.7749023 542.236084,51.8061523 C543.230713,49.8374023 543.728027,47.4995117 543.728027,44.7924805 C543.728027,42.3520508 543.189697,40.2243652 542.113037,38.4094238 C541.036377,36.5944824 539.11377,35.1896973 536.345215,34.1950684 C533.683143,33.2386944 529.959276,32.7421156 525.173614,32.705332 L524.594238,32.703125 Z M290.989746,58.2045898 C293.286621,58.2045898 294.804199,58.6147461 295.54248,59.4350586 C296.280762,60.2553711 296.649902,61.1782227 296.649902,62.2036133 C296.649902,62.8188477 296.511475,63.5314941 296.234619,64.3415527 C295.957764,65.1516113 295.419434,65.8642578 294.619629,66.4794922 C293.819824,67.0947266 292.620117,67.4023438 291.020508,67.4023438 L282.253418,67.4023438 L284.191406,58.2045898 L290.989746,58.2045898 Z M477.498047,42.6083984 C479.897461,42.6083984 481.820068,43.3723145 483.265869,44.9001465 C484.71167,46.4279785 485.43457,48.5966797 485.43457,51.40625 C485.43457,52.7392578 485.239746,54.2927246 484.850098,56.0666504 C484.460449,57.8405762 483.829834,59.5683594 482.958252,61.25 C482.08667,62.9316406 480.922852,64.3261719 479.466797,65.4335938 C478.010742,66.5410156 476.216309,67.0947266 474.083496,67.0947266 C472.504395,67.0947266 471.120117,66.7512207 469.930664,66.064209 C468.741211,65.3771973 467.818359,64.3620605 467.162109,63.0187988 C466.505859,61.6755371 466.177734,60.0297852 466.177734,58.081543 C466.177734,56.7280273 466.367432,55.1694336 466.746826,53.4057617 C467.126221,51.6420898 467.751709,49.9399414 468.623291,48.2993164 C469.494873,46.6586914 470.658691,45.3000488 472.114746,44.2233887 C473.570801,43.1467285 475.365234,42.6083984 477.498047,42.6083984 Z M524.840332,42.3007813 C527.465332,42.3007813 529.223877,42.6135254 530.115967,43.2390137 C531.008057,43.864502 531.454102,44.8129883 531.454102,46.0844727 C531.454102,47.8276367 530.895264,49.0529785 529.777588,49.760498 C528.659912,50.4680176 527.362793,50.8217773 525.88623,50.8217773 L515.919434,50.8217773 L517.703613,42.3007813 L524.840332,42.3007813 Z M295.604004,42.3007813 C297.203613,42.3007813 298.234131,42.5827637 298.695557,43.1467285 C299.156982,43.7106934 299.387695,44.3823242 299.387695,45.1616211 C299.387695,45.8588867 299.254395,46.5253906 298.987793,47.1611328 C298.721191,47.796875 298.2854,48.3095703 297.68042,48.6992188 C297.075439,49.0888672 296.270508,49.2836914 295.265625,49.2836914 L286.067871,49.2836914 L287.544434,42.3007813 L295.604004,42.3007813 Z" id="Combined-Shape"></path>
        </g>
    </g>
</svg>