<svg xmlns="http://www.w3.org/2000/svg" version="1.1" xmlns:xlink="http://www.w3.org/1999/xlink" xmlns:svgjs="http://svgjs.com/svgjs" width="100%" height="100%"><svg width="100%" height="100%" viewBox="0 0 156 156" version="1.1" xmlns="http://www.w3.org/2000/svg" xmlns:xlink="http://www.w3.org/1999/xlink" xml:space="preserve" xmlns:serif="http://www.serif.com/" style="fill-rule:evenodd;clip-rule:evenodd;stroke-linejoin:round;stroke-miterlimit:2;">
    <g transform="matrix(1,0,0,1,0,16)">
        <path d="M78.15,67.817C82.44,67.817 85.923,71.3 85.923,75.59C85.923,79.88 82.44,83.363 78.15,83.363C73.86,83.363 70.377,79.88 70.377,75.59C70.377,71.3 73.86,67.817 78.15,67.817Z" style="fill:rgb(177,0,74);"></path>
        <path d="M110.878,67.817C115.168,67.817 118.651,71.3 118.651,75.59C118.651,79.88 115.168,83.363 110.878,83.363C106.588,83.363 103.105,79.88 103.105,75.59C103.105,71.3 106.588,67.817 110.878,67.817Z" style="fill:rgb(30,52,78);"></path>
        <path d="M108.51,39.18L126.547,39.18L143.581,75.429L126.534,112.001L108.448,112.001C105.112,112.001 102.403,114.709 102.403,118.046C102.403,121.382 105.112,124.091 108.448,124.091L130.386,124.091C132.736,124.091 134.873,122.729 135.865,120.6L155.734,77.973C156.492,76.348 156.489,74.47 155.726,72.848L135.857,30.564C134.861,28.444 132.729,27.09 130.386,27.09L108.51,27.09C105.174,27.09 102.465,29.799 102.465,33.135C102.465,36.471 105.174,39.18 108.51,39.18Z" style="fill:rgb(30,52,78);"></path>
        <path d="M27.456,34.691C27.476,34.768 27.498,34.843 27.521,34.918L51.88,119.715C52.624,122.306 54.995,124.091 57.69,124.091L80.781,124.091C84.117,124.091 86.826,121.382 86.826,118.046C86.826,114.709 84.117,112.001 80.781,112.001L62.244,112.001L41.325,39.18L80.781,39.18C84.117,39.18 86.826,36.471 86.826,33.135C86.826,29.799 84.117,27.09 80.781,27.09L37.852,27.09L31.327,4.377C30.583,1.785 28.213,-0 25.517,-0L6.045,-0C2.709,-0 -0,2.709 -0,6.046C-0,9.382 2.709,12.091 6.045,12.091L20.964,12.091L27.456,34.691Z" style="fill:rgb(177,0,74);"></path>
    </g>
</svg><style>@media (prefers-color-scheme: light) { :root { filter: none; } }
</style></svg>